<svg id="Layer_1" data-name="Layer 1" xmlns="http://www.w3.org/2000/svg" viewBox="0 0 286.05 286.05"><defs><style>.cls-1{fill:#fff;}</style></defs><title>Artboard 1</title><path class="cls-1" d="M78.49,143.18H62.83v-.12c0-43.62,34.81-80.33,79.2-80.12a78.85,78.85,0,0,1,55.69,23.14l25.84-24.93a114.45,114.45,0,0,0-81.53-34c-63.63,0-115.21,52-115.3,116.08H10.9c-9.71,0-13.68,6.49-8.82,14.44l33.8,33.5c6.7,6.7,10.74,6.91,17.65,0l33.8-33.5C92.17,149.66,88.19,143.18,78.49,143.18ZM284,129.24,250.18,95.8c-6.89-6.89-11.16-6.48-17.64,0l-33.8,33.43c-4.85,7.93-.89,14.42,8.81,14.42h15.63c-.25,43.34-34.94,79.72-79.18,79.51a78.86,78.86,0,0,1-55.69-23.1L62.47,225A114.58,114.58,0,0,0,144,259c63.43,0,114.87-51.58,115.28-115.3h15.87C284.87,143.66,288.83,137.16,284,129.24Z"/></svg>